<?xml version="1.0" encoding="UTF-8"?>
<svg version="1.1" xmlns="http://www.w3.org/2000/svg" width="90" height="85">
<path d="M0 0 C4.24566763 1.27370029 8.15627351 2.95313676 12.125 4.9375 C11.795 6.5875 11.465 8.2375 11.125 9.9375 C10.05572266 9.85048828 10.05572266 9.85048828 8.96484375 9.76171875 C3.01006476 9.48121099 -0.79973132 9.70183484 -5.53515625 13.453125 C-9.10830949 17.41172042 -9.26586913 21.54549791 -9.5 26.6875 C-9.62375 29.08 -9.7475 31.4725 -9.875 33.9375 C-4.925 34.5975 0.025 35.2575 5.125 35.9375 C4.795 36.5975 4.465 37.2575 4.125 37.9375 C0.53163255 38.29638246 -3.04345517 38.38228343 -6.65234375 38.49609375 C-7.71582031 38.64175781 -8.77929688 38.78742187 -9.875 38.9375 C-12.39120749 42.71181124 -12.13799865 45.69811522 -12.0625 50.0625 C-12.05532959 50.82715576 -12.04815918 51.59181152 -12.04077148 52.37963867 C-11.94889326 61.278777 -11.94889326 61.278777 -10.27734375 69.98046875 C-9.875 71.9375 -9.875 71.9375 -10.875 74.9375 C-14.75 73.0625 -14.75 73.0625 -15.875 71.9375 C-16.00860038 70.51562369 -16.07849668 69.08765994 -16.12109375 67.66015625 C-16.15275635 66.76296875 -16.18441895 65.86578125 -16.21704102 64.94140625 C-16.24854248 63.97074219 -16.28004395 63.00007813 -16.3125 62 C-16.58442204 54.76440713 -17.03995999 47.62254815 -17.9375 40.4375 C-19.228054 29.80540178 -19.98970472 19.31984905 -16.875 8.9375 C-14.66035381 6.72285381 -12.54095826 5.95469195 -9.671875 4.8046875 C-7.61301608 3.90987582 -7.61301608 3.90987582 -5.3125 1.6875 C-2.875 -0.0625 -2.875 -0.0625 0 0 Z " fill="white" transform="translate(71.875,5.0625)"/>
<path d="M0 0 C0.556875 0.391875 1.11375 0.78375 1.6875 1.1875 C1.9375 7.8125 1.9375 7.8125 -0.3125 11.1875 C-0.77579053 13.14296421 -0.77579053 13.14296421 -0.98828125 15.28515625 C-1.09140625 16.08179687 -1.19453125 16.8784375 -1.30078125 17.69921875 C-1.40777344 18.54097656 -1.51476563 19.38273437 -1.625 20.25 C-2.55009039 26.8240466 -3.7521714 32.12536562 -7.109375 37.9296875 C-10.017745 43.38760262 -11.2373871 49.63389555 -11.8125 55.75 C-11.9775 56.884375 -12.1425 58.01875 -12.3125 59.1875 C-13.3025 59.8475 -14.2925 60.5075 -15.3125 61.1875 C-20.66129449 57.62163701 -21.45973507 50.91030258 -22.71484375 44.8984375 C-23.50193665 41.32822528 -24.3948108 37.78833713 -25.3125 34.25 C-25.4787085 33.58669678 -25.64491699 32.92339355 -25.81616211 32.23999023 C-26.83820394 28.32787972 -26.83820394 28.32787972 -29.3125 25.1875 C-29.43367188 26.32445313 -29.55484375 27.46140625 -29.6796875 28.6328125 C-30.49118354 36.15878386 -31.32942931 43.68183334 -32.3125 51.1875 C-32.456875 52.30125 -32.60125 53.415 -32.75 54.5625 C-33.3125 57.1875 -33.3125 57.1875 -35.3125 59.1875 C-37.9375 58.8125 -37.9375 58.8125 -40.3125 58.1875 C-40.53424933 56.73114629 -40.73948698 55.27227044 -40.9375 53.8125 C-41.05351563 53.00039063 -41.16953125 52.18828125 -41.2890625 51.3515625 C-41.29679687 50.63742188 -41.30453125 49.92328125 -41.3125 49.1875 C-40.6525 48.5275 -39.9925 47.8675 -39.3125 47.1875 C-37.42049517 42.23661512 -35.83360941 37.29442977 -36.8125 32 C-37.36479884 27.78872132 -36.7737009 25.91046362 -35.13671875 22.1328125 C-34.15623863 19.94102022 -34.15623863 19.94102022 -33.3125 16.5 C-32.34086511 13.28145943 -31.3412543 10.86545568 -29.3125 8.1875 C-28.3225 8.1875 -27.3325 8.1875 -26.3125 8.1875 C-26.11672363 9.31224731 -26.11672363 9.31224731 -25.91699219 10.4597168 C-25.30736615 13.93303711 -24.68499316 17.4039636 -24.0625 20.875 C-23.85753906 22.05384766 -23.65257813 23.23269531 -23.44140625 24.44726562 C-21.97094439 32.57936532 -19.91988289 40.34654023 -17.3125 48.1875 C-15.09090465 45.37743012 -15.09090465 45.37743012 -15.0625 42.25 C-14.64991868 38.43160032 -13.06130885 35.60961736 -11.25 32.25 C-8.06634492 26.12641463 -7.66814299 22.75368425 -8.62890625 15.9453125 C-9.30749636 10.84300208 -9.45437198 7.05539086 -7.3125 2.1875 C-3.41279155 -1.19908892 -3.41279155 -1.19908892 0 0 Z " fill="white" transform="translate(46.3125,8.8125)"/>
</svg>
